<svg width="291" height="52" viewBox="0 0 291 52" fill="none" xmlns="http://www.w3.org/2000/svg">
<g filter="url(#filter0_i_41_95)">
<path d="M59.93 38L54.08 16.7H60.14L63.32 29.84L66.59 16.7H71.27L74.54 29.84L77.69 16.7H83.75L77.93 38H71.93L68.93 26.3L65.93 38H59.93ZM92.6593 38.36C90.9193 38.36 89.3993 38.01 88.0993 37.31C86.7993 36.61 85.7893 35.63 85.0693 34.37C84.3493 33.09 83.9893 31.6 83.9893 29.9C83.9893 28.2 84.3493 26.72 85.0693 25.46C85.7893 24.2 86.7993 23.22 88.0993 22.52C89.3993 21.8 90.9193 21.44 92.6593 21.44C94.3993 21.44 95.8993 21.81 97.1593 22.55C98.4393 23.27 99.4193 24.3 100.099 25.64C100.779 26.98 101.119 28.56 101.119 30.38V31.4H89.9893C90.0293 32.38 90.2993 33.11 90.7993 33.59C91.3193 34.05 91.9793 34.28 92.7793 34.28C93.3593 34.28 93.8493 34.17 94.2493 33.95C94.6693 33.73 94.9693 33.34 95.1493 32.78L100.909 33.08C100.469 34.82 99.5093 36.14 98.0293 37.04C96.5493 37.92 94.7593 38.36 92.6593 38.36ZM89.9893 28.28H95.2993C95.2793 27.34 95.0293 26.63 94.5493 26.15C94.0693 25.65 93.4393 25.4 92.6593 25.4C91.9193 25.4 91.2993 25.66 90.7993 26.18C90.3193 26.7 90.0493 27.4 89.9893 28.28ZM114.019 38.36C112.879 38.36 111.909 38.13 111.109 37.67C110.309 37.19 109.679 36.52 109.219 35.66L109.129 38H103.459V16.7H109.279V24.14C109.739 23.32 110.369 22.67 111.169 22.19C111.969 21.69 112.919 21.44 114.019 21.44C115.359 21.44 116.519 21.79 117.499 22.49C118.499 23.19 119.269 24.18 119.809 25.46C120.349 26.72 120.619 28.2 120.619 29.9C120.619 31.6 120.349 33.09 119.809 34.37C119.269 35.63 118.499 36.61 117.499 37.31C116.519 38.01 115.359 38.36 114.019 38.36ZM112.039 34.19C112.799 34.19 113.419 33.82 113.899 33.08C114.399 32.34 114.649 31.28 114.649 29.9C114.649 28.52 114.409 27.46 113.929 26.72C113.469 25.98 112.839 25.61 112.039 25.61C111.459 25.61 110.959 25.78 110.539 26.12C110.119 26.44 109.799 26.92 109.579 27.56C109.379 28.2 109.279 28.98 109.279 29.9C109.279 30.8 109.379 31.57 109.579 32.21C109.799 32.85 110.119 33.34 110.539 33.68C110.959 34.02 111.459 34.19 112.039 34.19ZM128.54 38L136.22 16.7H142.91L150.59 38H144.59L143.39 34.49H135.71L134.51 38H128.54ZM137.27 29.93H141.86L139.58 23.18L137.27 29.93ZM152.239 42.5V21.8H157.909L158.029 25.19L157.639 25.04C158.039 23.88 158.679 22.99 159.559 22.37C160.439 21.75 161.479 21.44 162.679 21.44C164.119 21.44 165.339 21.8 166.339 22.52C167.339 23.24 168.099 24.24 168.619 25.52C169.139 26.78 169.399 28.24 169.399 29.9C169.399 31.54 169.129 33 168.589 34.28C168.069 35.56 167.299 36.56 166.279 37.28C165.279 38 164.059 38.36 162.619 38.36C161.859 38.36 161.149 38.22 160.489 37.94C159.829 37.64 159.249 37.22 158.749 36.68C158.269 36.14 157.909 35.5 157.669 34.76L158.059 34.64V42.5H152.239ZM160.729 34.19C161.569 34.19 162.229 33.81 162.709 33.05C163.189 32.27 163.429 31.22 163.429 29.9C163.429 28.58 163.189 27.54 162.709 26.78C162.229 26 161.569 25.61 160.729 25.61C160.169 25.61 159.689 25.77 159.289 26.09C158.889 26.41 158.579 26.89 158.359 27.53C158.159 28.17 158.059 28.96 158.059 29.9C158.059 30.84 158.159 31.63 158.359 32.27C158.579 32.91 158.889 33.39 159.289 33.71C159.689 34.03 160.169 34.19 160.729 34.19ZM171.75 42.5V21.8H177.42L177.54 25.19L177.15 25.04C177.55 23.88 178.19 22.99 179.07 22.37C179.95 21.75 180.99 21.44 182.19 21.44C183.63 21.44 184.85 21.8 185.85 22.52C186.85 23.24 187.61 24.24 188.13 25.52C188.65 26.78 188.91 28.24 188.91 29.9C188.91 31.54 188.64 33 188.1 34.28C187.58 35.56 186.81 36.56 185.79 37.28C184.79 38 183.57 38.36 182.13 38.36C181.37 38.36 180.66 38.22 180 37.94C179.34 37.64 178.76 37.22 178.26 36.68C177.78 36.14 177.42 35.5 177.18 34.76L177.57 34.64V42.5H171.75ZM180.24 34.19C181.08 34.19 181.74 33.81 182.22 33.05C182.7 32.27 182.94 31.22 182.94 29.9C182.94 28.58 182.7 27.54 182.22 26.78C181.74 26 181.08 25.61 180.24 25.61C179.68 25.61 179.2 25.77 178.8 26.09C178.4 26.41 178.09 26.89 177.87 27.53C177.67 28.17 177.57 28.96 177.57 29.9C177.57 30.84 177.67 31.63 177.87 32.27C178.09 32.91 178.4 33.39 178.8 33.71C179.2 34.03 179.68 34.19 180.24 34.19ZM207.301 38.48C205.341 38.48 203.671 38.17 202.291 37.55C200.911 36.93 199.841 36.05 199.081 34.91C198.321 33.77 197.891 32.42 197.791 30.86L203.641 30.59C203.741 31.29 203.941 31.89 204.241 32.39C204.541 32.87 204.941 33.24 205.441 33.5C205.961 33.74 206.601 33.86 207.361 33.86C207.961 33.86 208.471 33.8 208.891 33.68C209.311 33.54 209.631 33.33 209.851 33.05C210.071 32.77 210.181 32.42 210.181 32C210.181 31.62 210.081 31.29 209.881 31.01C209.701 30.71 209.331 30.45 208.771 30.23C208.231 29.99 207.421 29.76 206.341 29.54C204.401 29.14 202.831 28.68 201.631 28.16C200.431 27.62 199.551 26.93 198.991 26.09C198.451 25.25 198.181 24.18 198.181 22.88C198.181 21.56 198.521 20.4 199.201 19.4C199.881 18.4 200.861 17.62 202.141 17.06C203.421 16.5 204.961 16.22 206.761 16.22C208.661 16.22 210.251 16.54 211.531 17.18C212.811 17.82 213.801 18.7 214.501 19.82C215.221 20.94 215.651 22.24 215.791 23.72L210.001 23.96C209.961 23.3 209.801 22.74 209.521 22.28C209.241 21.82 208.861 21.47 208.381 21.23C207.921 20.97 207.361 20.84 206.701 20.84C205.861 20.84 205.211 21.01 204.751 21.35C204.291 21.69 204.061 22.14 204.061 22.7C204.061 23.14 204.171 23.51 204.391 23.81C204.631 24.11 205.011 24.36 205.531 24.56C206.071 24.76 206.801 24.94 207.721 25.1C209.821 25.46 211.481 25.95 212.701 26.57C213.921 27.19 214.781 27.93 215.281 28.79C215.801 29.65 216.061 30.64 216.061 31.76C216.061 33.14 215.711 34.34 215.011 35.36C214.331 36.36 213.331 37.13 212.011 37.67C210.711 38.21 209.141 38.48 207.301 38.48ZM225.885 38C224.065 38 222.735 37.58 221.895 36.74C221.055 35.88 220.635 34.52 220.635 32.66V17.99H226.455V31.82C226.455 32.62 226.615 33.17 226.935 33.47C227.275 33.75 227.785 33.89 228.465 33.89H230.685V38H225.885ZM217.875 25.91V21.8H230.685V25.91H217.875ZM240.728 38.36C238.968 38.36 237.428 38.01 236.108 37.31C234.808 36.61 233.788 35.63 233.048 34.37C232.328 33.09 231.968 31.6 231.968 29.9C231.968 28.2 232.328 26.72 233.048 25.46C233.788 24.2 234.808 23.22 236.108 22.52C237.428 21.8 238.968 21.44 240.728 21.44C242.488 21.44 244.018 21.8 245.318 22.52C246.638 23.22 247.658 24.2 248.378 25.46C249.118 26.72 249.488 28.2 249.488 29.9C249.488 31.6 249.118 33.09 248.378 34.37C247.658 35.63 246.638 36.61 245.318 37.31C244.018 38.01 242.488 38.36 240.728 38.36ZM240.728 34.19C241.628 34.19 242.318 33.82 242.798 33.08C243.278 32.34 243.518 31.28 243.518 29.9C243.518 28.54 243.278 27.49 242.798 26.75C242.318 25.99 241.628 25.61 240.728 25.61C239.828 25.61 239.138 25.99 238.658 26.75C238.178 27.49 237.938 28.54 237.938 29.9C237.938 31.28 238.178 32.34 238.658 33.08C239.138 33.82 239.828 34.19 240.728 34.19ZM251.848 38V21.8H257.488L257.668 26.9L257.248 26.84C257.548 25.04 258.028 23.75 258.688 22.97C259.348 22.19 260.278 21.8 261.478 21.8H262.858V26.42H261.418C260.558 26.42 259.848 26.51 259.288 26.69C258.748 26.85 258.338 27.14 258.058 27.56C257.798 27.98 257.668 28.57 257.668 29.33V38H251.848ZM272.249 38.36C270.509 38.36 268.989 38.01 267.689 37.31C266.389 36.61 265.379 35.63 264.659 34.37C263.939 33.09 263.579 31.6 263.579 29.9C263.579 28.2 263.939 26.72 264.659 25.46C265.379 24.2 266.389 23.22 267.689 22.52C268.989 21.8 270.509 21.44 272.249 21.44C273.989 21.44 275.489 21.81 276.749 22.55C278.029 23.27 279.009 24.3 279.689 25.64C280.369 26.98 280.709 28.56 280.709 30.38V31.4H269.579C269.619 32.38 269.889 33.11 270.389 33.59C270.909 34.05 271.569 34.28 272.369 34.28C272.949 34.28 273.439 34.17 273.839 33.95C274.259 33.73 274.559 33.34 274.739 32.78L280.499 33.08C280.059 34.82 279.099 36.14 277.619 37.04C276.139 37.92 274.349 38.36 272.249 38.36ZM269.579 28.28H274.889C274.869 27.34 274.619 26.63 274.139 26.15C273.659 25.65 273.029 25.4 272.249 25.4C271.509 25.4 270.889 25.66 270.389 26.18C269.909 26.7 269.639 27.4 269.579 28.28Z" fill="url(#paint0_linear_41_95)"/>
</g>
<g filter="url(#filter1_i_41_95)">
<circle cx="28.5" cy="25.5" r="12.5" fill="url(#paint1_linear_41_95)"/>
</g>
<g filter="url(#filter2_i_41_95)">
<circle cx="25" cy="25" r="17" stroke="url(#paint2_linear_41_95)" stroke-width="4"/>
</g>
<g filter="url(#filter3_i_41_95)">
<circle cx="25" cy="25" r="23" stroke="url(#paint3_linear_41_95)" stroke-width="4"/>
</g>
<defs>
<filter id="filter0_i_41_95" x="54.08" y="16.22" width="226.629" height="28.98" filterUnits="userSpaceOnUse" color-interpolation-filters="sRGB">
<feFlood flood-opacity="0" result="BackgroundImageFix"/>
<feBlend mode="normal" in="SourceGraphic" in2="BackgroundImageFix" result="shape"/>
<feColorMatrix in="SourceAlpha" type="matrix" values="0 0 0 0 0 0 0 0 0 0 0 0 0 0 0 0 0 0 127 0" result="hardAlpha"/>
<feOffset dy="3"/>
<feGaussianBlur stdDeviation="1.35"/>
<feComposite in2="hardAlpha" operator="arithmetic" k2="-1" k3="1"/>
<feColorMatrix type="matrix" values="0 0 0 0 0 0 0 0 0 0 0 0 0 0 0 0 0 0 0.25 0"/>
<feBlend mode="normal" in2="shape" result="effect1_innerShadow_41_95"/>
</filter>
<filter id="filter1_i_41_95" x="16" y="13" width="26" height="28.7" filterUnits="userSpaceOnUse" color-interpolation-filters="sRGB">
<feFlood flood-opacity="0" result="BackgroundImageFix"/>
<feBlend mode="normal" in="SourceGraphic" in2="BackgroundImageFix" result="shape"/>
<feColorMatrix in="SourceAlpha" type="matrix" values="0 0 0 0 0 0 0 0 0 0 0 0 0 0 0 0 0 0 127 0" result="hardAlpha"/>
<feOffset dx="1" dy="4"/>
<feGaussianBlur stdDeviation="1.85"/>
<feComposite in2="hardAlpha" operator="arithmetic" k2="-1" k3="1"/>
<feColorMatrix type="matrix" values="0 0 0 0 0 0 0 0 0 0 0 0 0 0 0 0 0 0 0.25 0"/>
<feBlend mode="normal" in2="shape" result="effect1_innerShadow_41_95"/>
</filter>
<filter id="filter2_i_41_95" x="6" y="6" width="38" height="42" filterUnits="userSpaceOnUse" color-interpolation-filters="sRGB">
<feFlood flood-opacity="0" result="BackgroundImageFix"/>
<feBlend mode="normal" in="SourceGraphic" in2="BackgroundImageFix" result="shape"/>
<feColorMatrix in="SourceAlpha" type="matrix" values="0 0 0 0 0 0 0 0 0 0 0 0 0 0 0 0 0 0 127 0" result="hardAlpha"/>
<feOffset dy="4"/>
<feGaussianBlur stdDeviation="2"/>
<feComposite in2="hardAlpha" operator="arithmetic" k2="-1" k3="1"/>
<feColorMatrix type="matrix" values="0 0 0 0 0 0 0 0 0 0 0 0 0 0 0 0 0 0 0.25 0"/>
<feBlend mode="normal" in2="shape" result="effect1_innerShadow_41_95"/>
</filter>
<filter id="filter3_i_41_95" x="0" y="0" width="50" height="54" filterUnits="userSpaceOnUse" color-interpolation-filters="sRGB">
<feFlood flood-opacity="0" result="BackgroundImageFix"/>
<feBlend mode="normal" in="SourceGraphic" in2="BackgroundImageFix" result="shape"/>
<feColorMatrix in="SourceAlpha" type="matrix" values="0 0 0 0 0 0 0 0 0 0 0 0 0 0 0 0 0 0 127 0" result="hardAlpha"/>
<feOffset dy="4"/>
<feGaussianBlur stdDeviation="2"/>
<feComposite in2="hardAlpha" operator="arithmetic" k2="-1" k3="1"/>
<feColorMatrix type="matrix" values="0 0 0 0 0 0 0 0 0 0 0 0 0 0 0 0 0 0 0.25 0"/>
<feBlend mode="normal" in2="shape" result="effect1_innerShadow_41_95"/>
</filter>
<linearGradient id="paint0_linear_41_95" x1="53" y1="27.5" x2="291" y2="27.5" gradientUnits="userSpaceOnUse">
<stop stop-color="#FFFFFF"/>
<stop offset="0.61" stop-color="#FFFFFF"/>
</linearGradient>
<linearGradient id="paint1_linear_41_95" x1="28.5" y1="13" x2="28.5" y2="38" gradientUnits="userSpaceOnUse">
<stop stop-color="#FFFFFF"/>
<stop offset="1" stop-color="#FFFFFF"/>
</linearGradient>
<linearGradient id="paint2_linear_41_95" x1="25" y1="10" x2="25" y2="40" gradientUnits="userSpaceOnUse">
<stop stop-color="#FFFFFF"/>
<stop offset="1" stop-color="#FFFFFF"/>
</linearGradient>
<linearGradient id="paint3_linear_41_95" x1="25" y1="4" x2="25" y2="46" gradientUnits="userSpaceOnUse">
<stop stop-color="#FFFFFF"/>
<stop offset="1" stop-color="#FFFFFF"/>
</linearGradient>
</defs>
</svg>